{
  "accessors": [
    {
      "bufferView": 2,
      "componentType": 5126,
      "count": 51231,
      "max": [
        2131.62548828125,
        2095.430908203125,
        -1572.6915283203125
      ],
      "min": [
        -2131.682373046875,
        -2094.910400390625,
        -2490.2353515625
      ],
      "type": "VEC3"
    },
    {
      "bufferView": 2,
      "byteOffset": 614772,
      "componentType": 5126,
      "count": 51231,
      "max": [
        0.9998942613601685,
        0.9998985528945923,
        0.9999947547912598
      ],
      "min": [
        -0.999947190284729,
        -0.9998553991317749,
        -1.0
      ],
      "type": "VEC3"
    },
    {
      "bufferView": 1,
      "componentType": 5126,
      "count": 51231,
      "max": [
        0.7019799947738647,
        0.9986299872398376
      ],
      "min": [
        0.001230000052601099,
        0.0016700000269338489
      ],
      "type": "VEC2"
    },
    {
      "bufferView": 0,
      "componentType": 5125,
      "count": 125388,
      "type": "SCALAR"
    }
  ],
  "asset": {
    "extras": {
      "author": "doctorchorizo (https://sketchfab.com/doctorchorizo)",
      "license": "CC-BY-4.0 (http://creativecommons.org/licenses/by/4.0/)",
      "source": "https://sketchfab.com/3d-models/small-rocks-db693c07512d4d2d8b6bc944b23b1591",
      "title": "Small rocks"
    },
    "generator": "Sketchfab-12.67.0",
    "version": "2.0"
  },
  "bufferViews": [
    {
      "buffer": 0,
      "byteLength": 501552,
      "name": "floatBufferViews",
      "target": 34963
    },
    {
      "buffer": 0,
      "byteLength": 409848,
      "byteOffset": 501552,
      "byteStride": 8,
      "name": "floatBufferViews",
      "target": 34962
    },
    {
      "buffer": 0,
      "byteLength": 1229544,
      "byteOffset": 911400,
      "byteStride": 12,
      "name": "floatBufferViews",
      "target": 34962
    }
  ],
  "buffers": [
    {
      "byteLength": 2140944,
      "uri": "scene.bin"
    }
  ],
  "images": [
    {
      "uri": "textures/material0_baseColor.jpeg"
    }
  ],
  "materials": [
    {
      "doubleSided": true,
      "emissiveTexture": {
        "index": 0
      },
      "name": "material0",
      "pbrMetallicRoughness": {
        "baseColorTexture": {
          "index": 0
        },
        "metallicFactor": 0.0
      }
    }
  ],
  "meshes": [
    {
      "name": "Object_0",
      "primitives": [
        {
          "attributes": {
            "NORMAL": 1,
            "POSITION": 0,
            "TEXCOORD_0": 2
          },
          "indices": 3,
          "material": 0,
          "mode": 4
        }
      ]
    }
  ],
  "nodes": [
    {
      "children": [
        1
      ],
      "matrix": [
        1.0,
        0.0,
        0.0,
        0.0,
        0.0,
        2.220446049250313e-16,
        -1.0,
        0.0,
        0.0,
        1.0,
        2.220446049250313e-16,
        0.0,
        0.0,
        0.0,
        0.0,
        1.0
      ],
      "name": "Sketchfab_model"
    },
    {
      "children": [
        2
      ],
      "name": "model_New Qlone_20170823_143938714.obj.cleaner.materialmerger.gles"
    },
    {
      "mesh": 0,
      "name": "Object_2"
    }
  ],
  "samplers": [
    {
      "magFilter": 9729,
      "minFilter": 9987,
      "wrapS": 10497,
      "wrapT": 10497
    }
  ],
  "scene": 0,
  "scenes": [
    {
      "name": "Sketchfab_Scene",
      "nodes": [
        0
      ]
    }
  ],
  "textures": [
    {
      "sampler": 0,
      "source": 0
    }
  ]
}
