{
  "accessors": [
    {
      "bufferView": 2,
      "componentType": 5126,
      "count": 65532,
      "max": [
        0.09902442246675491,
        0.0746341273188591,
        0.2533884048461914
      ],
      "min": [
        -0.5,
        -0.28439030051231384,
        0.09219618886709213
      ],
      "type": "VEC3"
    },
    {
      "bufferView": 2,
      "byteOffset": 786384,
      "componentType": 5126,
      "count": 65532,
      "max": [
        0.993956983089447,
        0.9924554228782654,
        0.9999839067459106
      ],
      "min": [
        -0.9855789542198181,
        -0.9672364592552185,
        0.09844149649143219
      ],
      "type": "VEC3"
    },
    {
      "bufferView": 3,
      "componentType": 5126,
      "count": 65532,
      "max": [
        1.0,
        0.575924813747406,
        0.9918708801269531,
        1.0
      ],
      "min": [
        0.08322279900312424,
        -0.5765512585639954,
        -0.9921169281005859,
        1.0
      ],
      "type": "VEC4"
    },
    {
      "bufferView": 1,
      "componentType": 5126,
      "count": 65532,
      "max": [
        0.5990244150161743,
        0.5746340751647949
      ],
      "min": [
        0.0,
        0.21560969948768616
      ],
      "type": "VEC2"
    },
    {
      "bufferView": 0,
      "componentType": 5125,
      "count": 319845,
      "type": "SCALAR"
    },
    {
      "bufferView": 2,
      "byteOffset": 1572768,
      "componentType": 5126,
      "count": 65533,
      "max": [
        0.4990243911743164,
        0.5,
        0.25797268748283386
      ],
      "min": [
        -0.3995122015476227,
        -0.4990243911743164,
        0.0018426630413159728
      ],
      "type": "VEC3"
    },
    {
      "bufferView": 2,
      "byteOffset": 2359164,
      "componentType": 5126,
      "count": 65533,
      "max": [
        0.9847500920295715,
        0.9951673746109009,
        1.0
      ],
      "min": [
        -0.9964512586593628,
        -0.9654126167297363,
        0.07517936080694199
      ],
      "type": "VEC3"
    },
    {
      "bufferView": 3,
      "byteOffset": 1048512,
      "componentType": 5126,
      "count": 65533,
      "max": [
        1.0,
        0.5762395858764648,
        0.9959782958030701,
        1.0
      ],
      "min": [
        0.05486628785729408,
        -0.5762157440185547,
        -0.9953352808952332,
        1.0
      ],
      "type": "VEC4"
    },
    {
      "bufferView": 1,
      "byteOffset": 524256,
      "componentType": 5126,
      "count": 65533,
      "max": [
        0.9990243911743164,
        1.0
      ],
      "min": [
        0.10048779845237732,
        0.0009756088256835938
      ],
      "type": "VEC2"
    },
    {
      "bufferView": 0,
      "byteOffset": 1279380,
      "componentType": 5125,
      "count": 309123,
      "type": "SCALAR"
    },
    {
      "bufferView": 2,
      "byteOffset": 3145560,
      "componentType": 5126,
      "count": 65532,
      "max": [
        0.4990243911743164,
        0.5,
        0.25696080923080444
      ],
      "min": [
        -0.5,
        -0.46000000834465027,
        0.0011114339577034116
      ],
      "type": "VEC3"
    },
    {
      "bufferView": 2,
      "byteOffset": 3931944,
      "componentType": 5126,
      "count": 65532,
      "max": [
        0.9924834370613098,
        0.9940436482429504,
        0.9999995231628418
      ],
      "min": [
        -0.9924433827400208,
        -0.990391194820404,
        0.06626375019550323
      ],
      "type": "VEC3"
    },
    {
      "bufferView": 3,
      "byteOffset": 2097040,
      "componentType": 5126,
      "count": 65532,
      "max": [
        1.0,
        0.5773264169692993,
        0.9956840872764587,
        1.0
      ],
      "min": [
        0.06195363029837608,
        -0.5763766169548035,
        -0.9944292306900024,
        1.0
      ],
      "type": "VEC4"
    },
    {
      "bufferView": 1,
      "byteOffset": 1048520,
      "componentType": 5126,
      "count": 65532,
      "max": [
        0.9990243911743164,
        1.0
      ],
      "min": [
        0.0,
        0.04000002145767212
      ],
      "type": "VEC2"
    },
    {
      "bufferView": 0,
      "byteOffset": 2515872,
      "componentType": 5125,
      "count": 300762,
      "type": "SCALAR"
    },
    {
      "bufferView": 2,
      "byteOffset": 4718328,
      "componentType": 5126,
      "count": 65532,
      "max": [
        0.49024391174316406,
        0.496097594499588,
        0.2541719079017639
      ],
      "min": [
        -0.4990243911743164,
        -0.34682929515838623,
        0.001250545959919691
      ],
      "type": "VEC3"
    },
    {
      "bufferView": 2,
      "byteOffset": 5504712,
      "componentType": 5126,
      "count": 65532,
      "max": [
        0.9882484674453735,
        0.9949190020561218,
        0.9999979734420776
      ],
      "min": [
        -0.992972195148468,
        -0.9856216907501221,
        0.06347990781068802
      ],
      "type": "VEC3"
    },
    {
      "bufferView": 3,
      "byteOffset": 3145552,
      "componentType": 5126,
      "count": 65532,
      "max": [
        1.0,
        0.5767328143119812,
        0.9979763031005859,
        1.0
      ],
      "min": [
        0.04367624968290329,
        -0.5758782625198364,
        -0.9907221794128418,
        1.0
      ],
      "type": "VEC4"
    },
    {
      "bufferView": 1,
      "byteOffset": 1572776,
      "componentType": 5126,
      "count": 65532,
      "max": [
        0.9902439117431641,
        0.9960976243019104
      ],
      "min": [
        0.0009756098152138293,
        0.15317070484161377
      ],
      "type": "VEC2"
    },
    {
      "bufferView": 0,
      "byteOffset": 3718920,
      "componentType": 5125,
      "count": 289065,
      "type": "SCALAR"
    },
    {
      "bufferView": 2,
      "byteOffset": 6291096,
      "componentType": 5126,
      "count": 65532,
      "max": [
        0.4951219856739044,
        0.23073169589042664,
        0.25797238945961
      ],
      "min": [
        -0.5,
        -0.4990243911743164,
        0.02512226067483425
      ],
      "type": "VEC3"
    },
    {
      "bufferView": 2,
      "byteOffset": 7077480,
      "componentType": 5126,
      "count": 65532,
      "max": [
        0.9952288866043091,
        0.9948961138725281,
        0.9999999403953552
      ],
      "min": [
        -0.9759812355041504,
        -0.9792670607566833,
        0.0715508982539177
      ],
      "type": "VEC3"
    },
    {
      "bufferView": 3,
      "byteOffset": 4194064,
      "componentType": 5126,
      "count": 65532,
      "max": [
        1.0,
        0.5765790939331055,
        0.9898259043693542,
        1.0
      ],
      "min": [
        0.05973950773477554,
        -0.5764808058738708,
        -0.9953566193580627,
        1.0
      ],
      "type": "VEC4"
    },
    {
      "bufferView": 1,
      "byteOffset": 2097032,
      "componentType": 5126,
      "count": 65532,
      "max": [
        0.9951220154762268,
        0.730731725692749
      ],
      "min": [
        0.0,
        0.0009756088256835938
      ],
      "type": "VEC2"
    },
    {
      "bufferView": 0,
      "byteOffset": 4875180,
      "componentType": 5125,
      "count": 280734,
      "type": "SCALAR"
    },
    {
      "bufferView": 2,
      "byteOffset": 7863864,
      "componentType": 5126,
      "count": 45518,
      "max": [
        -0.005365849006921053,
        0.47658538818359375,
        0.25605508685112
      ],
      "min": [
        -0.5,
        -0.436585396528244,
        0.001571470987983048
      ],
      "type": "VEC3"
    },
    {
      "bufferView": 2,
      "byteOffset": 8410080,
      "componentType": 5126,
      "count": 45518,
      "max": [
        0.987970232963562,
        0.9907734394073486,
        0.9999818801879883
      ],
      "min": [
        -0.9812152981758118,
        -0.988337516784668,
        0.09565050154924393
      ],
      "type": "VEC3"
    },
    {
      "bufferView": 3,
      "byteOffset": 5242576,
      "componentType": 5126,
      "count": 45518,
      "max": [
        1.0,
        0.5765420198440552,
        0.9889740943908691,
        1.0
      ],
      "min": [
        0.07852377742528915,
        -0.5760518312454224,
        -0.9916568398475647,
        1.0
      ],
      "type": "VEC4"
    },
    {
      "bufferView": 1,
      "byteOffset": 2621288,
      "componentType": 5126,
      "count": 45518,
      "max": [
        0.494634211063385,
        0.9765853881835938
      ],
      "min": [
        0.0,
        0.06341463327407837
      ],
      "type": "VEC2"
    },
    {
      "bufferView": 0,
      "byteOffset": 5998116,
      "componentType": 5125,
      "count": 159939,
      "type": "SCALAR"
    }
  ],
  "asset": {
    "extras": {
      "author": "TastefullBrick (https://sketchfab.com/tastefullbrick)",
      "license": "CC-BY-4.0 (http://creativecommons.org/licenses/by/4.0/)",
      "source": "https://sketchfab.com/3d-models/canyon-cliff-walls-20-58531a6aaa0842ecbbf0b6028d18b2f4",
      "title": "Canyon cliff walls 2.0"
    },
    "generator": "Sketchfab-15.27.0",
    "version": "2.0"
  },
  "bufferViews": [
    {
      "buffer": 0,
      "byteLength": 6637872,
      "name": "floatBufferViews",
      "target": 34963
    },
    {
      "buffer": 0,
      "byteLength": 2985432,
      "byteOffset": 6637872,
      "byteStride": 8,
      "name": "floatBufferViews",
      "target": 34962
    },
    {
      "buffer": 0,
      "byteLength": 8956296,
      "byteOffset": 9623304,
      "byteStride": 12,
      "name": "floatBufferViews",
      "target": 34962
    },
    {
      "buffer": 0,
      "byteLength": 5970864,
      "byteOffset": 18579600,
      "byteStride": 16,
      "name": "floatBufferViews",
      "target": 34962
    }
  ],
  "buffers": [
    {
      "byteLength": 24550464,
      "uri": "scene.bin"
    }
  ],
  "extensionsUsed": [
    "KHR_materials_specular"
  ],
  "images": [
    {
      "uri": "textures/material_0_baseColor.png"
    },
    {
      "uri": "textures/material_0_normal.png"
    }
  ],
  "materials": [
    {
      "doubleSided": true,
      "extensions": {
        "KHR_materials_specular": {
          "specularColorFactor": [
            1.0,
            1.0,
            1.0
          ],
          "specularFactor": 1.0
        }
      },
      "name": "material_0",
      "normalTexture": {
        "index": 1
      },
      "pbrMetallicRoughness": {
        "baseColorTexture": {
          "index": 0
        },
        "metallicFactor": 0.0
      }
    }
  ],
  "meshes": [
    {
      "name": "Object_0",
      "primitives": [
        {
          "attributes": {
            "NORMAL": 1,
            "POSITION": 0,
            "TANGENT": 2,
            "TEXCOORD_0": 3
          },
          "indices": 4,
          "material": 0,
          "mode": 4
        }
      ]
    },
    {
      "name": "Object_1",
      "primitives": [
        {
          "attributes": {
            "NORMAL": 6,
            "POSITION": 5,
            "TANGENT": 7,
            "TEXCOORD_0": 8
          },
          "indices": 9,
          "material": 0,
          "mode": 4
        }
      ]
    },
    {
      "name": "Object_2",
      "primitives": [
        {
          "attributes": {
            "NORMAL": 11,
            "POSITION": 10,
            "TANGENT": 12,
            "TEXCOORD_0": 13
          },
          "indices": 14,
          "material": 0,
          "mode": 4
        }
      ]
    },
    {
      "name": "Object_3",
      "primitives": [
        {
          "attributes": {
            "NORMAL": 16,
            "POSITION": 15,
            "TANGENT": 17,
            "TEXCOORD_0": 18
          },
          "indices": 19,
          "material": 0,
          "mode": 4
        }
      ]
    },
    {
      "name": "Object_4",
      "primitives": [
        {
          "attributes": {
            "NORMAL": 21,
            "POSITION": 20,
            "TANGENT": 22,
            "TEXCOORD_0": 23
          },
          "indices": 24,
          "material": 0,
          "mode": 4
        }
      ]
    },
    {
      "name": "Object_5",
      "primitives": [
        {
          "attributes": {
            "NORMAL": 26,
            "POSITION": 25,
            "TANGENT": 27,
            "TEXCOORD_0": 28
          },
          "indices": 29,
          "material": 0,
          "mode": 4
        }
      ]
    }
  ],
  "nodes": [
    {
      "children": [
        1
      ],
      "matrix": [
        1.0,
        0.0,
        0.0,
        0.0,
        0.0,
        2.220446049250313e-16,
        -1.0,
        0.0,
        0.0,
        1.0,
        2.220446049250313e-16,
        0.0,
        0.0,
        0.0,
        0.0,
        1.0
      ],
      "name": "Sketchfab_model"
    },
    {
      "children": [
        2,
        3,
        4,
        5,
        6,
        7
      ],
      "name": "Mesh.obj.cleaner.materialmerger.gles"
    },
    {
      "mesh": 0,
      "name": "Object_2"
    },
    {
      "mesh": 1,
      "name": "Object_3"
    },
    {
      "mesh": 2,
      "name": "Object_4"
    },
    {
      "mesh": 3,
      "name": "Object_5"
    },
    {
      "mesh": 4,
      "name": "Object_6"
    },
    {
      "mesh": 5,
      "name": "Object_7"
    }
  ],
  "samplers": [
    {
      "magFilter": 9729,
      "minFilter": 9987,
      "wrapS": 10497,
      "wrapT": 10497
    }
  ],
  "scene": 0,
  "scenes": [
    {
      "name": "Sketchfab_Scene",
      "nodes": [
        0
      ]
    }
  ],
  "textures": [
    {
      "sampler": 0,
      "source": 0
    },
    {
      "sampler": 0,
      "source": 1
    }
  ]
}
